<mxfile host="Electron" modified="2023-07-02T01:05:48.849Z" agent="Mozilla/5.0 (X11; Linux x86_64) AppleWebKit/537.36 (KHTML, like Gecko) draw.io/21.5.1 Chrome/112.0.5615.204 Electron/24.6.0 Safari/537.36" etag="OdKoi5jZgI4H4zm_JtQ2" version="21.5.1" type="device">
  <diagram id="R2lEEEUBdFMjLlhIrx00" name="Page-1">
    <mxGraphModel dx="2085" dy="1847" grid="1" gridSize="10" guides="1" tooltips="1" connect="1" arrows="1" fold="1" page="1" pageScale="1" pageWidth="850" pageHeight="1100" math="0" shadow="0" extFonts="Permanent Marker^https://fonts.googleapis.com/css?family=Permanent+Marker">
      <root>
        <mxCell id="0" />
        <mxCell id="1" parent="0" />
        <mxCell id="UwNy32jyWBCxV3vON2KL-10" style="edgeStyle=orthogonalEdgeStyle;rounded=0;orthogonalLoop=1;jettySize=auto;html=1;exitX=0.5;exitY=0;exitDx=0;exitDy=0;entryX=0.5;entryY=1;entryDx=0;entryDy=0;" edge="1" parent="1" source="UwNy32jyWBCxV3vON2KL-1" target="UwNy32jyWBCxV3vON2KL-3">
          <mxGeometry relative="1" as="geometry" />
        </mxCell>
        <mxCell id="UwNy32jyWBCxV3vON2KL-11" style="edgeStyle=orthogonalEdgeStyle;rounded=0;orthogonalLoop=1;jettySize=auto;html=1;exitX=0.5;exitY=0;exitDx=0;exitDy=0;entryX=0.35;entryY=1.07;entryDx=0;entryDy=0;entryPerimeter=0;" edge="1" parent="1" source="UwNy32jyWBCxV3vON2KL-1" target="UwNy32jyWBCxV3vON2KL-4">
          <mxGeometry relative="1" as="geometry" />
        </mxCell>
        <mxCell id="UwNy32jyWBCxV3vON2KL-12" style="edgeStyle=orthogonalEdgeStyle;rounded=0;orthogonalLoop=1;jettySize=auto;html=1;exitX=1;exitY=0.5;exitDx=0;exitDy=0;entryX=0.245;entryY=0.92;entryDx=0;entryDy=0;entryPerimeter=0;" edge="1" parent="1" source="UwNy32jyWBCxV3vON2KL-1" target="UwNy32jyWBCxV3vON2KL-7">
          <mxGeometry relative="1" as="geometry" />
        </mxCell>
        <mxCell id="UwNy32jyWBCxV3vON2KL-13" style="edgeStyle=orthogonalEdgeStyle;rounded=0;orthogonalLoop=1;jettySize=auto;html=1;exitX=0;exitY=0;exitDx=0;exitDy=0;entryX=0.5;entryY=1;entryDx=0;entryDy=0;" edge="1" parent="1" source="UwNy32jyWBCxV3vON2KL-1" target="UwNy32jyWBCxV3vON2KL-5">
          <mxGeometry relative="1" as="geometry" />
        </mxCell>
        <mxCell id="UwNy32jyWBCxV3vON2KL-18" style="edgeStyle=orthogonalEdgeStyle;rounded=0;orthogonalLoop=1;jettySize=auto;html=1;exitX=0.5;exitY=1;exitDx=0;exitDy=0;entryX=0.5;entryY=0;entryDx=0;entryDy=0;" edge="1" parent="1" source="UwNy32jyWBCxV3vON2KL-1" target="UwNy32jyWBCxV3vON2KL-17">
          <mxGeometry relative="1" as="geometry" />
        </mxCell>
        <mxCell id="UwNy32jyWBCxV3vON2KL-86" style="edgeStyle=orthogonalEdgeStyle;rounded=0;orthogonalLoop=1;jettySize=auto;html=1;exitX=1;exitY=1;exitDx=0;exitDy=0;entryX=0.5;entryY=0;entryDx=0;entryDy=0;" edge="1" parent="1" source="UwNy32jyWBCxV3vON2KL-1" target="UwNy32jyWBCxV3vON2KL-54">
          <mxGeometry relative="1" as="geometry">
            <Array as="points">
              <mxPoint x="100" y="190" />
              <mxPoint x="285" y="190" />
            </Array>
          </mxGeometry>
        </mxCell>
        <mxCell id="UwNy32jyWBCxV3vON2KL-87" value="&amp;lt;1: 1&amp;gt;" style="edgeLabel;html=1;align=center;verticalAlign=middle;resizable=0;points=[];fontSize=21;fontColor=#000000;labelBackgroundColor=#FFFFFF;" vertex="1" connectable="0" parent="UwNy32jyWBCxV3vON2KL-86">
          <mxGeometry x="-0.8941" relative="1" as="geometry">
            <mxPoint x="60" y="23" as="offset" />
          </mxGeometry>
        </mxCell>
        <mxCell id="UwNy32jyWBCxV3vON2KL-1" value="Paciente" style="rounded=0;whiteSpace=wrap;html=1;fillColor=#60a917;fontColor=#ffffff;strokeColor=#2D7600;" vertex="1" parent="1">
          <mxGeometry x="-20" y="80" width="120" height="60" as="geometry" />
        </mxCell>
        <mxCell id="UwNy32jyWBCxV3vON2KL-14" style="edgeStyle=orthogonalEdgeStyle;rounded=0;orthogonalLoop=1;jettySize=auto;html=1;exitX=0.5;exitY=0;exitDx=0;exitDy=0;entryX=0.5;entryY=1;entryDx=0;entryDy=0;" edge="1" parent="1" source="UwNy32jyWBCxV3vON2KL-3" target="UwNy32jyWBCxV3vON2KL-9">
          <mxGeometry relative="1" as="geometry" />
        </mxCell>
        <mxCell id="UwNy32jyWBCxV3vON2KL-15" style="edgeStyle=orthogonalEdgeStyle;rounded=0;orthogonalLoop=1;jettySize=auto;html=1;exitX=0;exitY=0;exitDx=0;exitDy=0;entryX=0.5;entryY=1;entryDx=0;entryDy=0;" edge="1" parent="1" source="UwNy32jyWBCxV3vON2KL-3" target="UwNy32jyWBCxV3vON2KL-8">
          <mxGeometry relative="1" as="geometry" />
        </mxCell>
        <mxCell id="UwNy32jyWBCxV3vON2KL-3" value="Nombre Completo&lt;span id=&quot;docs-internal-guid-cd7be61e-7fff-5507-17a3-141dce97e145&quot;&gt;&lt;/span&gt;" style="ellipse;whiteSpace=wrap;html=1;fillColor=#f0a30a;fontColor=#000000;strokeColor=#BD7000;" vertex="1" parent="1">
          <mxGeometry x="-10" y="-20" width="80" height="40" as="geometry" />
        </mxCell>
        <mxCell id="UwNy32jyWBCxV3vON2KL-4" value="&lt;u&gt;&lt;font color=&quot;#990000&quot;&gt;Código&lt;/font&gt;&lt;/u&gt;&lt;span id=&quot;docs-internal-guid-cd7be61e-7fff-5507-17a3-141dce97e145&quot;&gt;&lt;/span&gt;" style="ellipse;whiteSpace=wrap;html=1;fillColor=#f0a30a;fontColor=#000000;strokeColor=#BD7000;" vertex="1" parent="1">
          <mxGeometry x="130" y="-10" width="80" height="40" as="geometry" />
        </mxCell>
        <mxCell id="UwNy32jyWBCxV3vON2KL-5" value="Fecha Nacimiento&lt;span id=&quot;docs-internal-guid-cd7be61e-7fff-5507-17a3-141dce97e145&quot;&gt;&lt;/span&gt;" style="ellipse;whiteSpace=wrap;html=1;fillColor=#f0a30a;fontColor=#000000;strokeColor=#BD7000;" vertex="1" parent="1">
          <mxGeometry x="-140" y="15" width="80" height="40" as="geometry" />
        </mxCell>
        <mxCell id="UwNy32jyWBCxV3vON2KL-7" value="Teléfono&lt;span id=&quot;docs-internal-guid-cd7be61e-7fff-5507-17a3-141dce97e145&quot;&gt;&lt;/span&gt;" style="ellipse;whiteSpace=wrap;html=1;fillColor=#f0a30a;fontColor=#000000;strokeColor=#BD7000;" vertex="1" parent="1">
          <mxGeometry x="160" y="80" width="80" height="40" as="geometry" />
        </mxCell>
        <mxCell id="UwNy32jyWBCxV3vON2KL-8" value="Nombre&lt;span id=&quot;docs-internal-guid-cd7be61e-7fff-5507-17a3-141dce97e145&quot;&gt;&lt;/span&gt;" style="ellipse;whiteSpace=wrap;html=1;fillColor=#e3c800;fontColor=#000000;strokeColor=#B09500;" vertex="1" parent="1">
          <mxGeometry x="-70" y="-120" width="70" height="30" as="geometry" />
        </mxCell>
        <mxCell id="UwNy32jyWBCxV3vON2KL-9" value="Apellidos&lt;span id=&quot;docs-internal-guid-cd7be61e-7fff-5507-17a3-141dce97e145&quot;&gt;&lt;/span&gt;" style="ellipse;whiteSpace=wrap;html=1;fillColor=#e3c800;fontColor=#000000;strokeColor=#B09500;" vertex="1" parent="1">
          <mxGeometry x="20" y="-120" width="70" height="30" as="geometry" />
        </mxCell>
        <mxCell id="UwNy32jyWBCxV3vON2KL-29" style="edgeStyle=orthogonalEdgeStyle;rounded=0;orthogonalLoop=1;jettySize=auto;html=1;exitX=0;exitY=0.5;exitDx=0;exitDy=0;entryX=1;entryY=1;entryDx=0;entryDy=0;" edge="1" parent="1" source="UwNy32jyWBCxV3vON2KL-16" target="UwNy32jyWBCxV3vON2KL-27">
          <mxGeometry relative="1" as="geometry" />
        </mxCell>
        <mxCell id="UwNy32jyWBCxV3vON2KL-30" style="edgeStyle=orthogonalEdgeStyle;rounded=0;orthogonalLoop=1;jettySize=auto;html=1;exitX=0.25;exitY=0;exitDx=0;exitDy=0;entryX=0.635;entryY=1;entryDx=0;entryDy=0;entryPerimeter=0;" edge="1" parent="1" source="UwNy32jyWBCxV3vON2KL-16" target="UwNy32jyWBCxV3vON2KL-25">
          <mxGeometry relative="1" as="geometry" />
        </mxCell>
        <mxCell id="UwNy32jyWBCxV3vON2KL-31" style="edgeStyle=orthogonalEdgeStyle;rounded=0;orthogonalLoop=1;jettySize=auto;html=1;exitX=0.75;exitY=0;exitDx=0;exitDy=0;entryX=0.38;entryY=1.02;entryDx=0;entryDy=0;entryPerimeter=0;" edge="1" parent="1" source="UwNy32jyWBCxV3vON2KL-16" target="UwNy32jyWBCxV3vON2KL-28">
          <mxGeometry relative="1" as="geometry" />
        </mxCell>
        <mxCell id="UwNy32jyWBCxV3vON2KL-32" style="edgeStyle=orthogonalEdgeStyle;rounded=0;orthogonalLoop=1;jettySize=auto;html=1;exitX=1;exitY=0.5;exitDx=0;exitDy=0;entryX=0;entryY=0.5;entryDx=0;entryDy=0;" edge="1" parent="1" source="UwNy32jyWBCxV3vON2KL-16" target="UwNy32jyWBCxV3vON2KL-26">
          <mxGeometry relative="1" as="geometry" />
        </mxCell>
        <mxCell id="UwNy32jyWBCxV3vON2KL-59" style="edgeStyle=orthogonalEdgeStyle;rounded=0;orthogonalLoop=1;jettySize=auto;html=1;exitX=0.5;exitY=1;exitDx=0;exitDy=0;entryX=0.5;entryY=0;entryDx=0;entryDy=0;" edge="1" parent="1" source="UwNy32jyWBCxV3vON2KL-16" target="UwNy32jyWBCxV3vON2KL-58">
          <mxGeometry relative="1" as="geometry" />
        </mxCell>
        <mxCell id="UwNy32jyWBCxV3vON2KL-16" value="Médico" style="rounded=0;whiteSpace=wrap;html=1;fillColor=#60a917;fontColor=#ffffff;strokeColor=#2D7600;" vertex="1" parent="1">
          <mxGeometry x="610" y="45" width="120" height="60" as="geometry" />
        </mxCell>
        <mxCell id="UwNy32jyWBCxV3vON2KL-22" style="edgeStyle=orthogonalEdgeStyle;rounded=0;orthogonalLoop=1;jettySize=auto;html=1;exitX=0;exitY=1;exitDx=0;exitDy=0;" edge="1" parent="1" source="UwNy32jyWBCxV3vON2KL-17" target="UwNy32jyWBCxV3vON2KL-19">
          <mxGeometry relative="1" as="geometry" />
        </mxCell>
        <mxCell id="UwNy32jyWBCxV3vON2KL-23" style="edgeStyle=orthogonalEdgeStyle;rounded=0;orthogonalLoop=1;jettySize=auto;html=1;exitX=0.5;exitY=1;exitDx=0;exitDy=0;" edge="1" parent="1" source="UwNy32jyWBCxV3vON2KL-17" target="UwNy32jyWBCxV3vON2KL-21">
          <mxGeometry relative="1" as="geometry" />
        </mxCell>
        <mxCell id="UwNy32jyWBCxV3vON2KL-24" style="edgeStyle=orthogonalEdgeStyle;rounded=0;orthogonalLoop=1;jettySize=auto;html=1;exitX=1;exitY=1;exitDx=0;exitDy=0;" edge="1" parent="1" source="UwNy32jyWBCxV3vON2KL-17" target="UwNy32jyWBCxV3vON2KL-20">
          <mxGeometry relative="1" as="geometry" />
        </mxCell>
        <mxCell id="UwNy32jyWBCxV3vON2KL-17" value="Dirección&lt;span id=&quot;docs-internal-guid-cd7be61e-7fff-5507-17a3-141dce97e145&quot;&gt;&lt;/span&gt;" style="ellipse;whiteSpace=wrap;html=1;fillColor=#f0a30a;fontColor=#000000;strokeColor=#BD7000;" vertex="1" parent="1">
          <mxGeometry x="-130" y="180" width="80" height="40" as="geometry" />
        </mxCell>
        <mxCell id="UwNy32jyWBCxV3vON2KL-19" value="Provincia&lt;span id=&quot;docs-internal-guid-cd7be61e-7fff-5507-17a3-141dce97e145&quot;&gt;&lt;/span&gt;" style="ellipse;whiteSpace=wrap;html=1;fillColor=#e3c800;fontColor=#000000;strokeColor=#B09500;" vertex="1" parent="1">
          <mxGeometry x="-230" y="240" width="70" height="30" as="geometry" />
        </mxCell>
        <mxCell id="UwNy32jyWBCxV3vON2KL-20" value="CP&lt;span id=&quot;docs-internal-guid-cd7be61e-7fff-5507-17a3-141dce97e145&quot;&gt;&lt;/span&gt;" style="ellipse;whiteSpace=wrap;html=1;fillColor=#e3c800;fontColor=#000000;strokeColor=#B09500;" vertex="1" parent="1">
          <mxGeometry x="-10" y="250" width="70" height="30" as="geometry" />
        </mxCell>
        <mxCell id="UwNy32jyWBCxV3vON2KL-21" value="Población&lt;span id=&quot;docs-internal-guid-cd7be61e-7fff-5507-17a3-141dce97e145&quot;&gt;&lt;/span&gt;" style="ellipse;whiteSpace=wrap;html=1;fillColor=#e3c800;fontColor=#000000;strokeColor=#B09500;" vertex="1" parent="1">
          <mxGeometry x="-130" y="270" width="70" height="30" as="geometry" />
        </mxCell>
        <mxCell id="UwNy32jyWBCxV3vON2KL-42" style="edgeStyle=orthogonalEdgeStyle;rounded=0;orthogonalLoop=1;jettySize=auto;html=1;exitX=0;exitY=0;exitDx=0;exitDy=0;entryX=0.5;entryY=1;entryDx=0;entryDy=0;" edge="1" parent="1" source="UwNy32jyWBCxV3vON2KL-25" target="UwNy32jyWBCxV3vON2KL-39">
          <mxGeometry relative="1" as="geometry" />
        </mxCell>
        <mxCell id="UwNy32jyWBCxV3vON2KL-43" style="edgeStyle=orthogonalEdgeStyle;rounded=0;orthogonalLoop=1;jettySize=auto;html=1;exitX=0.5;exitY=0;exitDx=0;exitDy=0;entryX=0.5;entryY=1;entryDx=0;entryDy=0;" edge="1" parent="1" source="UwNy32jyWBCxV3vON2KL-25" target="UwNy32jyWBCxV3vON2KL-40">
          <mxGeometry relative="1" as="geometry" />
        </mxCell>
        <mxCell id="UwNy32jyWBCxV3vON2KL-25" value="Nombre Completo&lt;span id=&quot;docs-internal-guid-cd7be61e-7fff-5507-17a3-141dce97e145&quot;&gt;&lt;/span&gt;" style="ellipse;whiteSpace=wrap;html=1;fillColor=#f0a30a;fontColor=#000000;strokeColor=#BD7000;" vertex="1" parent="1">
          <mxGeometry x="570" y="-65" width="80" height="40" as="geometry" />
        </mxCell>
        <mxCell id="UwNy32jyWBCxV3vON2KL-26" value="Teléfono&lt;span id=&quot;docs-internal-guid-cd7be61e-7fff-5507-17a3-141dce97e145&quot;&gt;&lt;/span&gt;" style="ellipse;whiteSpace=wrap;html=1;fillColor=#f0a30a;fontColor=#000000;strokeColor=#BD7000;" vertex="1" parent="1">
          <mxGeometry x="770" y="35" width="80" height="40" as="geometry" />
        </mxCell>
        <mxCell id="UwNy32jyWBCxV3vON2KL-27" value="&lt;u&gt;&lt;font color=&quot;#990000&quot;&gt;Código&lt;/font&gt;&lt;/u&gt;" style="ellipse;whiteSpace=wrap;html=1;fillColor=#f0a30a;fontColor=#000000;strokeColor=#BD7000;" vertex="1" parent="1">
          <mxGeometry x="505" y="25" width="80" height="40" as="geometry" />
        </mxCell>
        <mxCell id="UwNy32jyWBCxV3vON2KL-28" value="Teléfono&lt;span id=&quot;docs-internal-guid-cd7be61e-7fff-5507-17a3-141dce97e145&quot;&gt;&lt;/span&gt;" style="ellipse;whiteSpace=wrap;html=1;fillColor=#f0a30a;fontColor=#000000;strokeColor=#BD7000;" vertex="1" parent="1">
          <mxGeometry x="700" y="-65" width="80" height="40" as="geometry" />
        </mxCell>
        <mxCell id="UwNy32jyWBCxV3vON2KL-39" value="Nombre&lt;span id=&quot;docs-internal-guid-cd7be61e-7fff-5507-17a3-141dce97e145&quot;&gt;&lt;/span&gt;" style="ellipse;whiteSpace=wrap;html=1;fillColor=#e3c800;fontColor=#000000;strokeColor=#B09500;" vertex="1" parent="1">
          <mxGeometry x="510" y="-165" width="70" height="30" as="geometry" />
        </mxCell>
        <mxCell id="UwNy32jyWBCxV3vON2KL-40" value="Apellidos&lt;span id=&quot;docs-internal-guid-cd7be61e-7fff-5507-17a3-141dce97e145&quot;&gt;&lt;/span&gt;" style="ellipse;whiteSpace=wrap;html=1;fillColor=#e3c800;fontColor=#000000;strokeColor=#B09500;" vertex="1" parent="1">
          <mxGeometry x="600" y="-165" width="70" height="30" as="geometry" />
        </mxCell>
        <mxCell id="UwNy32jyWBCxV3vON2KL-49" style="edgeStyle=orthogonalEdgeStyle;rounded=0;orthogonalLoop=1;jettySize=auto;html=1;exitX=0.5;exitY=0;exitDx=0;exitDy=0;entryX=0.5;entryY=1;entryDx=0;entryDy=0;" edge="1" parent="1" source="UwNy32jyWBCxV3vON2KL-44" target="UwNy32jyWBCxV3vON2KL-45">
          <mxGeometry relative="1" as="geometry" />
        </mxCell>
        <mxCell id="UwNy32jyWBCxV3vON2KL-51" style="edgeStyle=orthogonalEdgeStyle;rounded=0;orthogonalLoop=1;jettySize=auto;html=1;exitX=1;exitY=0;exitDx=0;exitDy=0;entryX=0;entryY=0.5;entryDx=0;entryDy=0;" edge="1" parent="1" source="UwNy32jyWBCxV3vON2KL-44" target="UwNy32jyWBCxV3vON2KL-46">
          <mxGeometry relative="1" as="geometry" />
        </mxCell>
        <mxCell id="UwNy32jyWBCxV3vON2KL-52" style="edgeStyle=orthogonalEdgeStyle;rounded=0;orthogonalLoop=1;jettySize=auto;html=1;exitX=1;exitY=1;exitDx=0;exitDy=0;entryX=0;entryY=0.5;entryDx=0;entryDy=0;" edge="1" parent="1" source="UwNy32jyWBCxV3vON2KL-44" target="UwNy32jyWBCxV3vON2KL-47">
          <mxGeometry relative="1" as="geometry" />
        </mxCell>
        <mxCell id="UwNy32jyWBCxV3vON2KL-44" value="Ingreso" style="rounded=0;whiteSpace=wrap;html=1;fillColor=#60a917;fontColor=#ffffff;strokeColor=#2D7600;" vertex="1" parent="1">
          <mxGeometry x="610" y="470" width="120" height="60" as="geometry" />
        </mxCell>
        <mxCell id="UwNy32jyWBCxV3vON2KL-45" value="&lt;u&gt;&lt;font color=&quot;#990000&quot;&gt;Código&lt;/font&gt;&lt;/u&gt;&lt;span id=&quot;docs-internal-guid-cd7be61e-7fff-5507-17a3-141dce97e145&quot;&gt;&lt;/span&gt;" style="ellipse;whiteSpace=wrap;html=1;fillColor=#f0a30a;fontColor=#000000;strokeColor=#BD7000;" vertex="1" parent="1">
          <mxGeometry x="630" y="370" width="80" height="40" as="geometry" />
        </mxCell>
        <mxCell id="UwNy32jyWBCxV3vON2KL-53" style="edgeStyle=orthogonalEdgeStyle;rounded=0;orthogonalLoop=1;jettySize=auto;html=1;exitX=1;exitY=0.5;exitDx=0;exitDy=0;entryX=0.366;entryY=0.947;entryDx=0;entryDy=0;entryPerimeter=0;" edge="1" parent="1" source="UwNy32jyWBCxV3vON2KL-46" target="UwNy32jyWBCxV3vON2KL-48">
          <mxGeometry relative="1" as="geometry" />
        </mxCell>
        <mxCell id="UwNy32jyWBCxV3vON2KL-46" value="Número Habitación&lt;span id=&quot;docs-internal-guid-cd7be61e-7fff-5507-17a3-141dce97e145&quot;&gt;&lt;/span&gt;" style="ellipse;whiteSpace=wrap;html=1;fillColor=#f0a30a;fontColor=#000000;strokeColor=#BD7000;" vertex="1" parent="1">
          <mxGeometry x="770" y="410" width="80" height="40" as="geometry" />
        </mxCell>
        <mxCell id="UwNy32jyWBCxV3vON2KL-47" value="Fecha" style="ellipse;whiteSpace=wrap;html=1;fillColor=#f0a30a;fontColor=#000000;strokeColor=#BD7000;" vertex="1" parent="1">
          <mxGeometry x="800" y="510" width="80" height="40" as="geometry" />
        </mxCell>
        <mxCell id="UwNy32jyWBCxV3vON2KL-48" value="Cama&lt;span id=&quot;docs-internal-guid-cd7be61e-7fff-5507-17a3-141dce97e145&quot;&gt;&lt;/span&gt;" style="ellipse;whiteSpace=wrap;html=1;fillColor=#e3c800;fontColor=#000000;strokeColor=#B09500;" vertex="1" parent="1">
          <mxGeometry x="890" y="340" width="70" height="30" as="geometry" />
        </mxCell>
        <mxCell id="UwNy32jyWBCxV3vON2KL-88" style="edgeStyle=orthogonalEdgeStyle;rounded=0;orthogonalLoop=1;jettySize=auto;html=1;exitX=1;exitY=0.5;exitDx=0;exitDy=0;entryX=0.5;entryY=1;entryDx=0;entryDy=0;" edge="1" parent="1" source="UwNy32jyWBCxV3vON2KL-54" target="UwNy32jyWBCxV3vON2KL-44">
          <mxGeometry relative="1" as="geometry" />
        </mxCell>
        <mxCell id="UwNy32jyWBCxV3vON2KL-89" value="(0:N)" style="edgeLabel;html=1;align=center;verticalAlign=middle;resizable=0;points=[];fontSize=21;labelBackgroundColor=#FFFFFF;fontColor=#000000;" vertex="1" connectable="0" parent="UwNy32jyWBCxV3vON2KL-88">
          <mxGeometry x="-0.2441" y="2" relative="1" as="geometry">
            <mxPoint x="-47" y="-32" as="offset" />
          </mxGeometry>
        </mxCell>
        <mxCell id="UwNy32jyWBCxV3vON2KL-54" value="Realiza" style="rhombus;whiteSpace=wrap;html=1;fillColor=#0050ef;fontColor=#ffffff;strokeColor=#001DBC;" vertex="1" parent="1">
          <mxGeometry x="210" y="430" width="150" height="70" as="geometry" />
        </mxCell>
        <mxCell id="UwNy32jyWBCxV3vON2KL-60" style="edgeStyle=orthogonalEdgeStyle;rounded=0;orthogonalLoop=1;jettySize=auto;html=1;exitX=0.5;exitY=1;exitDx=0;exitDy=0;entryX=0;entryY=0;entryDx=0;entryDy=0;" edge="1" parent="1" source="UwNy32jyWBCxV3vON2KL-58" target="UwNy32jyWBCxV3vON2KL-44">
          <mxGeometry relative="1" as="geometry" />
        </mxCell>
        <mxCell id="UwNy32jyWBCxV3vON2KL-58" value="Atiende" style="rhombus;whiteSpace=wrap;html=1;fillColor=#0050ef;fontColor=#ffffff;strokeColor=#001DBC;" vertex="1" parent="1">
          <mxGeometry x="370" y="240" width="150" height="70" as="geometry" />
        </mxCell>
        <mxCell id="UwNy32jyWBCxV3vON2KL-90" value="(0:N)" style="edgeLabel;html=1;align=center;verticalAlign=middle;resizable=0;points=[];fontSize=21;labelBackgroundColor=#FFFFFF;fontColor=#000000;" vertex="1" connectable="0" parent="1">
          <mxGeometry x="445.0041932246807" y="512" as="geometry">
            <mxPoint x="67" y="-124" as="offset" />
          </mxGeometry>
        </mxCell>
        <mxCell id="UwNy32jyWBCxV3vON2KL-91" value="&amp;lt;1: 1&amp;gt;" style="edgeLabel;html=1;align=center;verticalAlign=middle;resizable=0;points=[];fontSize=21;fontColor=#000000;labelBackgroundColor=#FFFFFF;" vertex="1" connectable="0" parent="1">
          <mxGeometry x="389.99526315789456" y="153" as="geometry">
            <mxPoint x="232" y="17" as="offset" />
          </mxGeometry>
        </mxCell>
      </root>
    </mxGraphModel>
  </diagram>
</mxfile>
